# This file uses centimeters as units for non-parametric coordinates.

mtllib Bullet_Red.mtl
g default
v -0.793541 -0.793541 0.793541
v 0.793541 -0.793541 0.793541
v -0.793541 0.793541 0.793541
v 0.793541 0.793541 0.793541
v -0.793541 0.793541 -0.793541
v 0.793541 0.793541 -0.793541
v -0.793541 -0.793541 -0.793541
v 0.793541 -0.793541 -0.793541
v 1.071280 0.000000 1.071280
v 0.000000 1.071280 1.071280
v -1.071280 1.071280 0.000000
v 1.071280 1.071280 0.000000
v 0.000000 1.071280 -1.071280
v -1.071280 0.000000 -1.071280
v 1.071280 0.000000 -1.071280
v 0.000000 -1.071280 -1.071280
v -1.071280 -1.071280 0.000000
v 1.071280 -1.071280 0.000000
v 0.000000 -1.071280 1.071280
v -1.071280 0.000000 1.071280
v 0.000000 0.000000 1.428373
v 0.000000 1.428373 0.000000
v 0.000000 0.000000 -1.428373
v 0.000000 -1.428373 0.000000
v 1.428373 0.000000 0.000000
v -1.428373 0.000000 0.000000
v -1.068216 -1.068216 1.068216
v 1.068216 -1.068216 1.068216
v -1.068216 1.068216 1.068216
v 1.068216 1.068216 1.068216
v -1.068216 1.068216 -1.068216
v 1.068216 1.068216 -1.068216
v -1.068216 -1.068216 -1.068216
v 1.068216 -1.068216 -1.068216
v 1.442091 0.000000 1.442091
v 0.000000 1.442091 1.442091
v -1.442091 1.442091 0.000000
v 1.442091 1.442091 0.000000
v 0.000000 1.442091 -1.442091
v -1.442091 0.000000 -1.442091
v 1.442091 0.000000 -1.442091
v 0.000000 -1.442091 -1.442091
v -1.442091 -1.442091 0.000000
v 1.442091 -1.442091 0.000000
v 0.000000 -1.442091 1.442091
v -1.442091 0.000000 1.442091
v 0.000000 0.000000 1.922789
v 0.000000 1.922789 0.000000
v 0.000000 0.000000 -1.922789
v 0.000000 -1.922789 0.000000
v 1.922789 0.000000 0.000000
v -1.922789 0.000000 0.000000
vt 0.652907 0.022143
vt 0.500000 0.000000
vt 0.500000 0.125000
vt 0.375000 0.125000
vt 0.654806 0.022143
vt 0.625000 0.000000
vt 0.625000 0.125000
vt 0.500000 0.125000
vt 0.500000 0.125000
vt 0.625000 0.125000
vt 0.625000 0.250000
vt 0.500000 0.250000
vt 0.375000 0.125000
vt 0.654806 0.024042
vt 0.500000 0.250000
vt 0.375000 0.250000
vt 0.375000 0.250000
vt 0.654806 0.025942
vt 0.500000 0.375000
vt 0.652907 0.027841
vt 0.500000 0.250000
vt 0.656705 0.025942
vt 0.625000 0.375000
vt 0.500000 0.375000
vt 0.500000 0.375000
vt 0.656705 0.027841
vt 0.625000 0.500000
vt 0.500000 0.500000
vt 0.375000 0.375000
vt 0.654806 0.027841
vt 0.500000 0.500000
vt 0.652907 0.029740
vt 0.375000 0.500000
vt 0.654806 0.029740
vt 0.500000 0.625000
vt 0.652907 0.031640
vt 0.500000 0.500000
vt 0.656705 0.029740
vt 0.625000 0.625000
vt 0.500000 0.625000
vt 0.500000 0.625000
vt 0.656705 0.031640
vt 0.625000 0.750000
vt 0.500000 0.750000
vt 0.375000 0.625000
vt 0.654806 0.031640
vt 0.500000 0.750000
vt 0.652907 0.033539
vt 0.375000 0.750000
vt 0.654806 0.033539
vt 0.500000 0.875000
vt 0.652907 0.035438
vt 0.500000 0.750000
vt 0.656705 0.033539
vt 0.625000 0.875000
vt 0.500000 0.875000
vt 0.500000 0.875000
vt 0.656705 0.035438
vt 0.656705 0.037338
vt 0.654806 0.037338
vt 0.375000 0.875000
vt 0.654806 0.035438
vt 0.500000 1.000000
vt 0.652907 0.037338
vt 0.656705 0.022143
vt 0.658605 0.022143
vt 0.750000 0.125000
vt 0.625000 0.125000
vt 0.750000 0.000000
vt 0.660504 0.022143
vt 0.660504 0.024042
vt 0.750000 0.125000
vt 0.750000 0.125000
vt 0.875000 0.125000
vt 0.660504 0.025942
vt 0.658605 0.025942
vt 0.656705 0.024042
vt 0.658605 0.024042
vt 0.750000 0.250000
vt 0.625000 0.250000
vt 0.649108 0.022143
vt 0.651007 0.022143
vt 0.250000 0.125000
vt 0.125000 0.125000
vt 0.250000 0.000000
vt 0.375000 0.000000
vt 0.652907 0.024042
vt 0.250000 0.125000
vt 0.250000 0.125000
vt 0.375000 0.125000
vt 0.652907 0.025942
vt 0.651007 0.025942
vt 0.649108 0.024042
vt 0.651007 0.024042
vt 0.250000 0.250000
vt 0.649108 0.025942
vt 0.807207 0.092712
vt 0.807207 0.100078
vt 0.814574 0.100078
vt 0.814574 0.092712
vt 0.821940 0.100078
vt 0.821940 0.092712
vt 0.814574 0.107444
vt 0.821940 0.107444
vt 0.807207 0.107444
vt 0.807207 0.114810
vt 0.814574 0.114810
vt 0.821940 0.114810
vt 0.814574 0.122177
vt 0.821940 0.122177
vt 0.807207 0.122177
vt 0.807207 0.129543
vt 0.814574 0.129543
vt 0.821940 0.129543
vt 0.814574 0.136909
vt 0.821940 0.136909
vt 0.807207 0.136909
vt 0.807207 0.144275
vt 0.814574 0.144275
vt 0.821940 0.144275
vt 0.814574 0.151642
vt 0.821940 0.151642
vt 0.807207 0.151642
vt 0.829306 0.100078
vt 0.829306 0.092712
vt 0.836672 0.100078
vt 0.836672 0.092712
vt 0.829306 0.107444
vt 0.836672 0.107444
vt 0.792475 0.092712
vt 0.792475 0.100078
vt 0.799841 0.100078
vt 0.799841 0.092712
vt 0.799841 0.107444
vt 0.792475 0.107444
vn -0.577350 -0.577350 0.577350
vn 0.000000 -0.707107 0.707107
vn 0.000000 0.000000 1.000000
vn -0.707107 0.000000 0.707107
vn 0.577350 -0.577350 0.577350
vn 0.707107 0.000000 0.707107
vn 0.577350 0.577350 0.577350
vn 0.000000 0.707107 0.707107
vn -0.577350 0.577350 0.577350
vn 0.000000 1.000000 -0.000000
vn -0.707107 0.707107 -0.000000
vn 0.707107 0.707107 -0.000000
vn 0.577350 0.577350 -0.577350
vn -0.000000 0.707107 -0.707107
vn -0.577350 0.577350 -0.577350
vn 0.000000 0.000000 -1.000000
vn -0.707107 0.000000 -0.707107
vn 0.707107 0.000000 -0.707107
vn 0.577350 -0.577350 -0.577350
vn -0.000000 -0.707107 -0.707107
vn -0.577350 -0.577350 -0.577350
vn 0.000000 -1.000000 0.000000
vn -0.707107 -0.707107 -0.000000
vn 0.707107 -0.707107 0.000000
vn 1.000000 0.000000 -0.000000
vn -1.000000 0.000000 -0.000000
vn 0.577350 0.577350 -0.577350
vn 0.707107 0.000000 -0.707107
vn 0.000000 0.000000 -1.000000
vn 0.000000 0.707107 -0.707107
vn -0.707107 0.000000 -0.707107
vn -0.577350 0.577350 -0.577350
vn 0.000000 -0.707107 -0.707107
vn -0.577350 -0.577350 -0.577350
vn 0.577350 -0.577350 -0.577350
vn 0.707107 -0.707107 0.000000
vn 0.000000 -1.000000 0.000000
vn -0.707107 -0.707107 0.000000
vn 0.000000 -0.707107 0.707107
vn -0.577350 -0.577350 0.577350
vn 0.577350 -0.577350 0.577350
vn 0.707107 0.000000 0.707107
vn 0.000000 0.000000 1.000000
vn -0.707107 0.000000 0.707107
vn 0.000000 0.707107 0.707107
vn -0.577350 0.577350 0.577350
vn 0.577350 0.577350 0.577350
vn 0.707107 0.707107 0.000000
vn 0.000000 1.000000 0.000000
vn -0.707107 0.707107 0.000000
vn -1.000000 0.000000 0.000000
vn 1.000000 0.000000 0.000000
s 1
g pCube3
usemtl surfaceShader4SG
f 1/1/1 19/5/2 21/14/3 20/87/4
f 19/5/2 2/65/5 9/77/6 21/14/3
f 21/14/3 9/77/6 4/22/7 10/18/8
f 20/87/4 21/14/3 10/18/8 3/91/9
f 3/91/9 10/18/8 22/30/10 11/20/11
f 10/18/8 4/22/7 12/26/12 22/30/10
f 22/30/10 12/26/12 6/38/13 13/34/14
f 11/20/11 22/30/10 13/34/14 5/32/15
f 5/32/15 13/34/14 23/46/16 14/36/17
f 13/34/14 6/38/13 15/42/18 23/46/16
f 23/46/16 15/42/18 8/54/19 16/50/20
f 14/36/17 23/46/16 16/50/20 7/48/21
f 7/48/21 16/50/20 24/62/22 17/52/23
f 16/50/20 8/54/19 18/58/24 24/62/22
f 24/62/22 18/58/24 2/59/5 19/60/2
f 17/52/23 24/62/22 19/60/2 1/64/1
f 2/65/5 18/66/24 25/78/25 9/77/6
f 18/66/24 8/70/19 15/71/18 25/78/25
f 25/78/25 15/71/18 6/75/13 12/76/12
f 9/77/6 25/78/25 12/76/12 4/22/7
f 7/81/21 17/82/23 26/94/26 14/93/17
f 17/82/23 1/1/1 20/87/4 26/94/26
f 26/94/26 20/87/4 3/91/9 11/92/11
f 14/93/17 26/94/26 11/92/11 5/96/15
s 2
f 27/97/27 46/98/28 47/99/29 45/100/30
f 45/100/30 47/99/29 35/101/31 28/102/32
f 47/99/29 36/103/33 30/104/34 35/101/31
f 46/98/28 29/105/35 36/103/33 47/99/29
f 29/105/35 37/106/36 48/107/37 36/103/33
f 36/103/33 48/107/37 38/108/38 30/104/34
f 48/107/37 39/109/39 32/110/40 38/108/38
f 37/106/36 31/111/41 39/109/39 48/107/37
f 31/111/41 40/112/42 49/113/43 39/109/39
f 39/109/39 49/113/43 41/114/44 32/110/40
f 49/113/43 42/115/45 34/116/46 41/114/44
f 40/112/42 33/117/47 42/115/45 49/113/43
f 33/117/47 43/118/48 50/119/49 42/115/45
f 42/115/45 50/119/49 44/120/50 34/116/46
f 50/119/49 45/121/30 28/122/32 44/120/50
f 43/118/48 27/123/27 45/121/30 50/119/49
f 28/102/32 35/101/31 51/124/51 44/125/50
f 44/125/50 51/124/51 41/126/44 34/127/46
f 51/124/51 38/128/38 32/129/40 41/126/44
f 35/101/31 30/104/34 38/128/38 51/124/51
f 33/130/47 40/131/42 52/132/52 43/133/48
f 43/133/48 52/132/52 46/98/28 27/97/27
f 52/132/52 37/134/36 29/105/35 46/98/28
f 40/131/42 31/135/41 37/134/36 52/132/52
